:FULLY-SPECIFIED
:FORCE-ALL-JOINTS-BE-3DOF
:DEGREES
611
root 5.62768 16.6713 -3.76132 0.275257 52.7298 -7.81315
lfemur -17.8352 24.1116 -21.9261
ltibia 40.2996 -0 0
lfoot -32.5265 24.4571 0.00217424
ltoes 18.034 -0 0
rfemur -52.7309 -17.8416 27.6792
rtibia 61.7936 -0 0
rfoot 7.96325 28.7259 0.0276273
rtoes -3.82869 0 0
lowerback 3.47879 -3.2712 -4.88747
upperback 0.0648115 -4.53316 1.14772
thorax -1.40812 -2.22917 4.10976
lowerneck -8.35601 -9.43882 -0.552871
upperneck 14.8371 -13.4505 4.60367
head 6.23874 -6.18824 0.461688
lclavicle -1.97542e-14 -2.78299e-14 0
lhumerus -22.3843 -42.2082 93.0008
lradius 56.8956 -0 0
lwrist 20.6878 0 0
lhand -10.5904 0.285972 -0.000402228
lfingers 7.12502 -0 0
lthumb 15.4151 29.6911 -0.00040885
rclavicle -1.97542e-14 -2.78299e-14 0
rhumerus 21.4443 3.91592 -71.9421
rradius 118.182 -0 0
rwrist -58.0705 0 0
rhand -27.0665 -22.5661 0.0101169
rfingers 7.12502 -0 0
rthumb -0.484355 -52.5439 0.00973667
612
root 5.63522 16.6792 -3.75144 0.910482 51.4427 -7.44438
lfemur -17.5937 23.7166 -21.8923
ltibia 39.8931 -0 0
lfoot -32.5468 23.8435 0.00413177
ltoes 18.5075 -0 0
rfemur -52.4126 -17.8766 27.2334
rtibia 61.8361 -0 0
rfoot 7.85247 27.3177 0.0525399
rtoes -3.82593 0 0
lowerback 3.24645 -3.27632 -4.78696
upperback -0.0662221 -4.52616 1.21049
thorax -1.41621 -2.22339 4.10797
lowerneck -8.45576 -9.34554 -0.474671
upperneck 14.782 -13.3235 4.54343
head 6.22661 -6.12832 0.439241
lclavicle -1.97542e-14 -2.78299e-14 0
lhumerus -22.517 -42.9943 93.5766
lradius 57.5906 -0 0
lwrist 20.7085 0 0
lhand -10.5494 0.229734 -0.000764234
lfingers 7.12502 -0 0
lthumb 15.4545 29.6318 -0.000776817
rclavicle -1.97542e-14 -2.78299e-14 0
rhumerus 20.1259 3.94959 -71.484
rradius 117.036 -0 0
rwrist -57.3791 0 0
rhand -27.22 -22.9433 0.0192236
rfingers 7.12502 -0 0
rthumb -0.632589 -52.9198 0.018501
613
root 5.64276 16.687 -3.74157 1.51549 50.1532 -7.10793
lfemur -17.3532 23.3215 -21.8603
ltibia 39.4867 -0 0
lfoot -32.567 23.2299 0.00587237
ltoes 18.981 -0 0
rfemur -52.0939 -17.9093 26.7872
rtibia 61.8787 -0 0
rfoot 7.74112 25.9094 0.0747228
rtoes -3.82317 0 0
lowerback 3.01411 -3.28104 -4.68644
upperback -0.197247 -4.51902 1.27324
thorax -1.42431 -2.21761 4.10618
lowerneck -8.55537 -9.25213 -0.396657
upperneck 14.7268 -13.1966 4.4831
head 6.21446 -6.06841 0.416784
lclavicle -1.97542e-14 -2.78299e-14 0
lhumerus -22.6625 -43.7792 94.1625
lradius 58.2856 -0 0
lwrist 20.7293 0 0
lhand -10.5085 0.173496 -0.00108602
lfingers 7.12502 -0 0
lthumb 15.494 29.5724 -0.0011039
rclavicle -1.97542e-14 -2.78299e-14 0
rhumerus 18.8077 3.99377 -71.0267
rradius 115.89 -0 0
rwrist -56.6876 0 0
rhand -27.3736 -23.3205 0.0273196
rfingers 7.12502 -0 0
rthumb -0.780878 -53.2957 0.0262927
614
root 5.65029 16.6948 -3.73169 2.09323 48.8616 -6.80095
lfemur -17.1136 22.9262 -21.8303
ltibia 39.0802 -0 0
lfoot -32.5873 22.6164 0.00739583
ltoes 19.4546 -0 0
rfemur -51.7749 -17.9396 26.3408
rtibia 61.9212 -0 0
rfoot 7.62926 24.5011 0.0941624
rtoes -3.8204 0 0
lowerback 2.78176 -3.28535 -4.58589
upperback -0.328262 -4.51174 1.33598
thorax -1.43241 -2.21183 4.1044
lowerneck -8.65482 -9.15858 -0.318827
upperneck 14.6715 -13.0696 4.42267
head 6.20229 -6.0085 0.394317
lclavicle -1.97542e-14 -2.78299e-14 0
lhumerus -22.8211 -44.5631 94.7591
lradius 58.9807 -0 0
lwrist 20.75 0 0
lhand -10.4675 0.117258 -0.00136758
lfingers 7.12502 -0 0
lthumb 15.5334 29.5131 -0.0013901
rclavicle -1.97542e-14 -2.78299e-14 0
rhumerus 17.4899 4.04843 -70.5706
rradius 114.744 -0 0
rwrist -55.9962 0 0
rhand -27.5271 -23.6978 0.0344044
rfingers 7.12502 -0 0
rthumb -0.929215 -53.6716 0.0331113
615
root 5.65783 16.7027 -3.72181 2.6463 47.5681 -6.52093
lfemur -16.8749 22.5308 -21.8021
ltibia 38.6737 -0 0
lfoot -32.6076 22.0028 0.00870197
ltoes 19.9281 -0 0
rfemur -51.4556 -17.9676 25.8941
rtibia 61.9637 -0 0
rfoot 7.51696 23.0928 0.110847
rtoes -3.81764 0 0
lowerback 2.5494 -3.28925 -4.48533
upperback -0.459268 -4.50431 1.3987
thorax -1.4405 -2.20605 4.10261
lowerneck -8.75411 -9.0649 -0.241183
upperneck 14.616 -12.9428 4.36215
head 6.19009 -5.94859 0.37184
lclavicle -1.97542e-14 -2.78299e-14 0
lhumerus -22.9935 -45.3457 95.3669
lradius 59.6757 -0 0
lwrist 20.7707 0 0
lhand -10.4265 0.0610199 -0.00160892
lfingers 7.12502 -0 0
lthumb 15.5729 29.4537 -0.00163541
rclavicle -1.97542e-14 -2.78299e-14 0
rhumerus 16.1724 4.11354 -70.1159
rradius 113.598 -0 0
rwrist -55.3047 0 0
rhand -27.6808 -24.075 0.0404779
rfingers 7.12502 -0 0
rthumb -1.07759 -54.0476 0.0389564
616
root 5.66537 16.7105 -3.71193 3.17702 46.2728 -6.26568
lfemur -16.6371 22.1353 -21.7758
ltibia 38.2672 -0 0
lfoot -32.6279 21.3893 0.00979066
ltoes 20.4016 -0 0
rfemur -51.136 -17.9931 25.4472
rtibia 62.0062 -0 0
rfoot 7.40428 21.6845 0.124766
rtoes -3.81488 0 0
lowerback 2.31703 -3.29275 -4.38475
upperback -0.590264 -4.49675 1.4614
thorax -1.4486 -2.20028 4.10082
lowerneck -8.85325 -8.97109 -0.163723
upperneck 14.5605 -12.816 4.30153
head 6.17787 -5.88869 0.349352
lclavicle -1.97542e-14 -2.78299e-14 0
lhumerus -23.1803 -46.1269 95.9866
lradius 60.3707 -0 0
lwrist 20.7914 0 0
lhand -10.3855 0.00478154 -0.00181004
lfingers 7.12502 -0 0
lthumb 15.6124 29.3943 -0.00183984
rclavicle -1.97542e-14 -2.78299e-14 0
rhumerus 14.8554 4.18906 -69.6627
rradius 112.452 -0 0
rwrist -54.6133 0 0
rhand -27.8344 -24.4523 0.0455395
rfingers 7.12502 -0 0
rthumb -1.22601 -54.4235 0.0438277
617
root 5.67291 16.7183 -3.70205 3.68745 44.9761 -6.03323
lfemur -16.4002 21.7398 -21.7513
ltibia 37.8607 -0 0
lfoot -32.6483 20.7757 0.0106618
ltoes 20.8751 -0 0
rfemur -50.8162 -18.0163 25.0001
rtibia 62.0488 -0 0
rfoot 7.29129 20.2761 0.135912
rtoes -3.81212 0 0
lowerback 2.08466 -3.29584 -4.28416
upperback -0.721251 -4.48904 1.52408
thorax -1.4567 -2.1945 4.09903
lowerneck -8.95223 -8.87715 -0.0864481
upperneck 14.5049 -12.6893 4.24082
head 6.16563 -5.82879 0.326854
lclavicle -1.97542e-14 -2.78299e-14 0
lhumerus -23.3822 -46.9067 96.6191
lradius 61.0657 -0 0
lwrist 20.8122 0 0
lhand -10.3445 -0.051457 -0.00197093
lfingers 7.12502 -0 0
lthumb 15.6518 29.335 -0.00200339
rclavicle -1.97542e-14 -2.78299e-14 0
rhumerus 13.5389 4.27494 -69.2113
rradius 111.306 -0 0
rwrist -53.9218 0 0
rhand -27.9882 -24.8296 0.0495891
rfingers 7.12502 -0 0
rthumb -1.37445 -54.7995 0.0477251
618
root 5.68045 16.7262 -3.69218 4.17943 43.6779 -5.82185
lfemur -16.1641 21.3441 -21.7287
ltibia 37.4543 -0 0
lfoot -32.6686 20.1622 0.0113152
ltoes 21.3486 -0 0
rfemur -50.4961 -18.0372 24.5529
rtibia 62.0913 -0 0
rfoot 7.17806 18.8677 0.144277
rtoes -3.80936 0 0
lowerback 1.85228 -3.29852 -4.18356
upperback -0.852228 -4.48118 1.58675
thorax -1.4648 -2.18872 4.09724
lowerneck -9.05106 -8.78307 -0.00935681
upperneck 14.4491 -12.5626 4.18001
head 6.15337 -5.7689 0.304345
lclavicle -1.97542e-14 -2.78299e-14 0
lhumerus -23.5998 -47.6849 97.265
lradius 61.7607 -0 0
lwrist 20.8329 0 0
lhand -10.3036 -0.107696 -0.00209161
lfingers 7.12502 -0 0
lthumb 15.6913 29.2756 -0.00212604
rclavicle -1.97542e-14 -2.78299e-14 0
rhumerus 12.2229 4.37114 -68.762
rradius 110.16 -0 0
rwrist -53.2304 0 0
rhand -28.1419 -25.2069 0.0526265
rfingers 7.12502 -0 0
rthumb -1.52291 -55.1755 0.0506483
619
root 5.68799 16.734 -3.6823 4.65463 42.3786 -5.62998
lfemur -15.9288 20.9483 -21.7078
ltibia 37.0478 -0 0
lfoot -32.6889 19.5486 0.0117508
ltoes 21.8221 -0 0
rfemur -50.1759 -18.0556 24.1054
rtibia 62.1338 -0 0
rfoot 7.06466 17.4593 0.149857
rtoes -3.8066 0 0
lowerback 1.61989 -3.30079 -4.08295
upperback -0.983194 -4.47319 1.64939
thorax -1.47289 -2.18294 4.09545
lowerneck -9.14974 -8.68886 0.0675508
upperneck 14.3932 -12.436 4.1191
head 6.14108 -5.70901 0.281826
lclavicle -1.97542e-14 -2.78299e-14 0
lhumerus -23.834 -48.4614 97.9252
lradius 62.4557 -0 0
lwrist 20.8536 0 0
lhand -10.2626 -0.163934 -0.00217205
lfingers 7.12502 -0 0
lthumb 15.7308 29.2162 -0.00220782
rclavicle -1.97542e-14 -2.78299e-14 0
rhumerus 10.9076 4.47761 -68.3149
rradius 109.014 -0 0
rwrist -52.5389 0 0
rhand -28.2956 -25.5842 0.0546516
rfingers 7.12502 -0 0
rthumb -1.67139 -55.5515 0.0525972
620
root 5.69553 16.7418 -3.67242 5.11453 41.0781 -5.45627
lfemur -15.6943 20.5525 -21.6888
ltibia 36.6413 -0 0
lfoot -32.7093 18.9351 0.0119686
ltoes 22.2956 -0 0
rfemur -49.8555 -18.0717 23.6578
rtibia 62.1763 -0 0
rfoot 6.95115 16.0509 0.152647
rtoes -3.80384 0 0
lowerback 1.38751 -3.30266 -3.98232
upperback -1.11415 -4.46505 1.71202
thorax -1.48099 -2.17716 4.09366
lowerneck -9.24827 -8.59453 0.144275
upperneck 14.3373 -12.3094 4.0581
head 6.12878 -5.64913 0.259296
lclavicle -1.97542e-14 -2.78299e-14 0
lhumerus -24.0855 -49.2359 98.6006
lradius 63.1507 -0 0
lwrist 20.8743 0 0
lhand -10.2216 -0.220173 -0.00221228
lfingers 7.12502 -0 0
lthumb 15.7702 29.1569 -0.0022487
rclavicle -1.97542e-14 -2.78299e-14 0
rhumerus 9.59293 4.59427 -67.8704
rradius 107.868 -0 0
rwrist -51.8475 0 0
rhand -28.4494 -25.9615 0.0556641
rfingers 7.12502 -0 0
rthumb -1.81988 -55.9275 0.0535717
621
root 5.70306 16.7497 -3.66254 5.56049 39.7766 -5.29946
lfemur -15.4605 20.1566 -21.6715
ltibia 36.2348 -0 0
lfoot -32.7296 18.3215 0.0119686
ltoes 22.7692 -0 0
rfemur -49.535 -18.0854 23.2101
rtibia 62.2189 -0 0
rfoot 6.83762 14.6425 0.152647
rtoes -3.80107 0 0
lowerback 1.15511 -3.30412 -3.88169
upperback -1.2451 -4.45676 1.77463
thorax -1.48909 -2.17139 4.09186
lowerneck -9.34664 -8.50006 0.220816
upperneck 14.2812 -12.1829 3.997
head 6.11645 -5.58925 0.236756
lclavicle -1.97542e-14 -2.78299e-14 0
lhumerus -24.3552 -50.0085 99.2921
lradius 63.8458 -0 0
lwrist 20.8951 0 0
lhand -10.1806 -0.276412 -0.00221228
lfingers 7.12502 -0 0
lthumb 15.8097 29.0975 -0.0022487
rclavicle -1.97542e-14 -2.78299e-14 0
rhumerus 8.27898 4.72107 -67.4286
rradius 106.722 -0 0
rwrist -51.156 0 0
rhand -28.6031 -26.3389 0.0556641
rfingers 7.12502 -0 0
rthumb -1.96838 -56.3035 0.0535717
622
root 5.7106 16.7575 -3.65266 5.99373 38.4743 -5.15847
lfemur -15.2274 19.7607 -21.656
ltibia 35.8283 -0 0
lfoot -32.75 17.708 0.0117508
ltoes 23.2427 -0 0
rfemur -49.2143 -18.0967 22.7623
rtibia 62.2614 -0 0
rfoot 6.72411 13.234 0.149857
rtoes -3.79831 0 0
lowerback 0.922719 -3.30517 -3.78106
upperback -1.37603 -4.44834 1.83721
thorax -1.49719 -2.16561 4.09007
lowerneck -9.44486 -8.40546 0.297174
upperneck 14.225 -12.0565 3.9358
head 6.10409 -5.52938 0.214205
lclavicle -1.97542e-14 -2.78299e-14 0
lhumerus -24.644 -50.7788 100.001
lradius 64.5408 -0 0
lwrist 20.9158 0 0
lhand -10.1397 -0.332651 -0.00217205
lfingers 7.12502 -0 0
lthumb 15.8491 29.0382 -0.00220782
rclavicle -1.97542e-14 -2.78299e-14 0
rhumerus 6.9658 4.85793 -66.9897
rradius 105.576 -0 0
rwrist -50.4646 0 0
rhand -28.7569 -26.7162 0.0546516
rfingers 7.12502 -0 0
rthumb -2.11687 -56.6795 0.0525972
623
root 5.71814 16.7653 -3.64278 6.41537 37.1712 -5.03231
lfemur -14.995 19.3646 -21.6422
ltibia 35.4218 -0 0
lfoot -32.7703 17.0944 0.0113152
ltoes 23.7162 -0 0
rfemur -48.8935 -18.1056 22.3144
rtibia 62.3039 -0 0
rfoot 6.61071 11.8256 0.144277
rtoes -3.79555 0 0
lowerback 0.690323 -3.30581 -3.68042
upperback -1.50696 -4.43977 1.89978
thorax -1.50529 -2.15983 4.08827
lowerneck -9.54293 -8.31074 0.37335
upperneck 14.1687 -11.9301 3.87451
head 6.09172 -5.46951 0.191643
lclavicle -1.97542e-14 -2.78299e-14 0
lhumerus -24.953 -51.5468 100.727
lradius 65.2358 -0 0
lwrist 20.9365 0 0
lhand -10.0987 -0.388889 -0.00209161
lfingers 7.12502 -0 0
lthumb 15.8886 28.9788 -0.00212604
rclavicle -1.97542e-14 -2.78299e-14 0
rhumerus 5.65343 5.00478 -66.554
rradius 104.43 -0 0
rwrist -49.7731 0 0
rhand -28.9106 -27.0935 0.0526265
rfingers 7.12502 -0 0
rthumb -2.26535 -57.0555 0.0506483
